<svg id="visual" viewBox="0 0 3840 2160" width="3840" height="2160" xmlns="http://www.w3.org/2000/svg" xmlns:xlink="http://www.w3.org/1999/xlink" version="1.1"><rect x="0" y="0" width="3840" height="2160" fill="#001e62"></rect><defs><linearGradient id="grad1_0" x1="43.8%" y1="0%" x2="100%" y2="100%"><stop offset="14.444444444444446%" stop-color="#426ea4" stop-opacity="1"></stop><stop offset="85.55555555555554%" stop-color="#426ea4" stop-opacity="1"></stop></linearGradient></defs><defs><linearGradient id="grad1_1" x1="43.8%" y1="0%" x2="100%" y2="100%"><stop offset="14.444444444444446%" stop-color="#426ea4" stop-opacity="1"></stop><stop offset="85.55555555555554%" stop-color="#2a538f" stop-opacity="1"></stop></linearGradient></defs><defs><linearGradient id="grad1_2" x1="43.8%" y1="0%" x2="100%" y2="100%"><stop offset="14.444444444444446%" stop-color="#143879" stop-opacity="1"></stop><stop offset="85.55555555555554%" stop-color="#2a538f" stop-opacity="1"></stop></linearGradient></defs><defs><linearGradient id="grad1_3" x1="43.8%" y1="0%" x2="100%" y2="100%"><stop offset="14.444444444444446%" stop-color="#143879" stop-opacity="1"></stop><stop offset="85.55555555555554%" stop-color="#001e62" stop-opacity="1"></stop></linearGradient></defs><defs><linearGradient id="grad2_0" x1="0%" y1="0%" x2="56.3%" y2="100%"><stop offset="14.444444444444446%" stop-color="#426ea4" stop-opacity="1"></stop><stop offset="85.55555555555554%" stop-color="#426ea4" stop-opacity="1"></stop></linearGradient></defs><defs><linearGradient id="grad2_1" x1="0%" y1="0%" x2="56.3%" y2="100%"><stop offset="14.444444444444446%" stop-color="#2a538f" stop-opacity="1"></stop><stop offset="85.55555555555554%" stop-color="#426ea4" stop-opacity="1"></stop></linearGradient></defs><defs><linearGradient id="grad2_2" x1="0%" y1="0%" x2="56.3%" y2="100%"><stop offset="14.444444444444446%" stop-color="#2a538f" stop-opacity="1"></stop><stop offset="85.55555555555554%" stop-color="#143879" stop-opacity="1"></stop></linearGradient></defs><defs><linearGradient id="grad2_3" x1="0%" y1="0%" x2="56.3%" y2="100%"><stop offset="14.444444444444446%" stop-color="#001e62" stop-opacity="1"></stop><stop offset="85.55555555555554%" stop-color="#143879" stop-opacity="1"></stop></linearGradient></defs><g transform="translate(3840, 0)"><path d="M0 1620C-227.9 1612.3 -455.8 1604.6 -619.9 1496.7C-784.1 1388.8 -884.4 1180.6 -1023.9 1023.9C-1163.3 867.1 -1341.9 761.8 -1447.7 599.7C-1553.6 437.6 -1586.8 218.8 -1620 0L0 0Z" fill="#092b6e"></path><path d="M0 1215C-170.9 1209.2 -341.9 1203.4 -465 1122.5C-588.1 1041.6 -663.3 885.5 -767.9 767.9C-872.5 650.4 -1006.4 571.3 -1085.8 449.7C-1165.2 328.2 -1190.1 164.1 -1215 0L0 0Z" fill="#1f4584"></path><path d="M0 810C-114 806.1 -227.9 802.3 -310 748.3C-392 694.4 -442.2 590.3 -511.9 511.9C-581.7 433.6 -670.9 380.9 -723.9 299.8C-776.8 218.8 -793.4 109.4 -810 0L0 0Z" fill="#36609a"></path><path d="M0 405C-57 403.1 -114 401.1 -155 374.2C-196 347.2 -221.1 295.2 -256 256C-290.8 216.8 -335.5 190.4 -361.9 149.9C-388.4 109.4 -396.7 54.7 -405 0L0 0Z" fill="#426ea4"></path></g><g transform="translate(0, 2160)"><path d="M0 -1620C196.1 -1520.6 392.2 -1421.3 542.3 -1309.1C692.3 -1197 796.2 -1072.1 967.3 -967.3C1138.4 -862.5 1376.7 -777.8 1496.7 -619.9C1616.7 -462.1 1618.3 -231 1620 0L0 0Z" fill="#092b6e"></path><path d="M0 -1215C147.1 -1140.5 294.2 -1065.9 406.7 -981.9C519.2 -897.8 597.2 -804.1 725.5 -725.5C853.8 -646.9 1032.5 -583.4 1122.5 -465C1212.5 -346.6 1213.7 -173.3 1215 0L0 0Z" fill="#1f4584"></path><path d="M0 -810C98.1 -760.3 196.1 -710.6 271.1 -654.6C346.1 -598.5 398.1 -536.1 483.7 -483.7C569.2 -431.3 688.4 -388.9 748.3 -310C808.3 -231 809.2 -115.5 810 0L0 0Z" fill="#36609a"></path><path d="M0 -405C49 -380.2 98.1 -355.3 135.6 -327.3C173.1 -299.3 199.1 -268 241.8 -241.8C284.6 -215.6 344.2 -194.5 374.2 -155C404.2 -115.5 404.6 -57.8 405 0L0 0Z" fill="#426ea4"></path></g></svg>