<svg xmlns="http://www.w3.org/2000/svg" xmlns:xlink="http://www.w3.org/1999/xlink" width="300" zoomAndPan="magnify" viewBox="0 0 224.87999 82.499998" height="110" preserveAspectRatio="xMidYMid meet" version="1.0"><defs><g/><clipPath id="103a423882"><path d="M 0.617188 0 L 224.144531 0 L 224.144531 82.003906 L 0.617188 82.003906 Z M 0.617188 0 " clip-rule="nonzero"/></clipPath><clipPath id="a263523780"><path d="M 102 31 L 108 31 L 108 35 L 102 35 Z M 102 31 " clip-rule="nonzero"/></clipPath><clipPath id="327a1a83d4"><path d="M 120.710938 1.105469 L 149.578125 51.621094 L 98.453125 80.835938 L 69.585938 30.320312 Z M 120.710938 1.105469 " clip-rule="nonzero"/></clipPath><clipPath id="2f370aa672"><path d="M 120.710938 1.105469 L 149.578125 51.621094 L 98.453125 80.835938 L 69.585938 30.320312 Z M 120.710938 1.105469 " clip-rule="nonzero"/></clipPath><clipPath id="d51deb6c5a"><path d="M 85 18 L 149 18 L 149 61 L 85 61 Z M 85 18 " clip-rule="nonzero"/></clipPath><clipPath id="d2aef5414b"><path d="M 120.710938 1.105469 L 149.578125 51.621094 L 98.453125 80.835938 L 69.585938 30.320312 Z M 120.710938 1.105469 " clip-rule="nonzero"/></clipPath><clipPath id="66845907d0"><path d="M 120.710938 1.105469 L 149.578125 51.621094 L 98.453125 80.835938 L 69.585938 30.320312 Z M 120.710938 1.105469 " clip-rule="nonzero"/></clipPath><clipPath id="387727c4bd"><path d="M 90 49 L 104 49 L 104 75 L 90 75 Z M 90 49 " clip-rule="nonzero"/></clipPath><clipPath id="b6b31c3744"><path d="M 120.710938 1.105469 L 149.578125 51.621094 L 98.453125 80.835938 L 69.585938 30.320312 Z M 120.710938 1.105469 " clip-rule="nonzero"/></clipPath><clipPath id="84d07568cd"><path d="M 120.710938 1.105469 L 149.578125 51.621094 L 98.453125 80.835938 L 69.585938 30.320312 Z M 120.710938 1.105469 " clip-rule="nonzero"/></clipPath><clipPath id="37233723e1"><path d="M 99 42 L 107 42 L 107 48 L 99 48 Z M 99 42 " clip-rule="nonzero"/></clipPath><clipPath id="5780475846"><path d="M 120.710938 1.105469 L 149.578125 51.621094 L 98.453125 80.835938 L 69.585938 30.320312 Z M 120.710938 1.105469 " clip-rule="nonzero"/></clipPath><clipPath id="81febe4f62"><path d="M 120.710938 1.105469 L 149.578125 51.621094 L 98.453125 80.835938 L 69.585938 30.320312 Z M 120.710938 1.105469 " clip-rule="nonzero"/></clipPath><clipPath id="8918e114a4"><path d="M 101 44 L 108 44 L 108 49 L 101 49 Z M 101 44 " clip-rule="nonzero"/></clipPath><clipPath id="756f8520a1"><path d="M 120.710938 1.105469 L 149.578125 51.621094 L 98.453125 80.835938 L 69.585938 30.320312 Z M 120.710938 1.105469 " clip-rule="nonzero"/></clipPath><clipPath id="21bf0fde13"><path d="M 120.710938 1.105469 L 149.578125 51.621094 L 98.453125 80.835938 L 69.585938 30.320312 Z M 120.710938 1.105469 " clip-rule="nonzero"/></clipPath><clipPath id="0f10f8f62c"><path d="M 102 46 L 107 46 L 107 50 L 102 50 Z M 102 46 " clip-rule="nonzero"/></clipPath><clipPath id="c8cacec628"><path d="M 120.710938 1.105469 L 149.578125 51.621094 L 98.453125 80.835938 L 69.585938 30.320312 Z M 120.710938 1.105469 " clip-rule="nonzero"/></clipPath><clipPath id="9554d93667"><path d="M 120.710938 1.105469 L 149.578125 51.621094 L 98.453125 80.835938 L 69.585938 30.320312 Z M 120.710938 1.105469 " clip-rule="nonzero"/></clipPath></defs><g clip-path="url(#103a423882)"><path fill="#ffffff" d="M 0.617188 0 L 224.261719 0 L 224.261719 82.003906 L 0.617188 82.003906 Z M 0.617188 0 " fill-opacity="1" fill-rule="nonzero"/><path fill="#ffffff" d="M 0.617188 0 L 224.261719 0 L 224.261719 82.003906 L 0.617188 82.003906 Z M 0.617188 0 " fill-opacity="1" fill-rule="nonzero"/></g><g clip-path="url(#a263523780)"><g clip-path="url(#327a1a83d4)"><g clip-path="url(#2f370aa672)"><path fill="#ffffff" d="M 105.734375 32.203125 C 105.414062 31.902344 105.066406 31.621094 104.679688 31.394531 C 104.261719 31.1875 103.804688 31.039062 103.304688 31.066406 C 103.257812 31.054688 103.203125 31.085938 103.175781 31.101562 C 102.960938 31.1875 102.875 31.421875 102.957031 31.636719 C 103.007812 31.71875 103.039062 31.773438 103.070312 31.832031 C 103.101562 31.886719 103.136719 31.941406 103.167969 32 C 103.230469 32.109375 103.308594 32.179688 103.355469 32.261719 C 103.496094 32.441406 103.648438 32.578125 103.816406 32.742188 C 104.132812 33.042969 104.476562 33.253906 104.867188 33.480469 C 105.238281 33.675781 105.59375 33.84375 106.003906 33.980469 C 106.390625 34.128906 106.785156 34.238281 107.195312 34.300781 L 106.128906 33.609375 C 105.785156 33.398438 105.496094 33.15625 105.183594 32.925781 C 104.867188 32.699219 104.605469 32.4375 104.347656 32.179688 C 104.332031 32.152344 104.3125 32.125 104.269531 32.109375 C 104.3125 32.125 104.3125 32.125 104.359375 32.136719 C 104.699219 32.273438 105 32.476562 105.3125 32.703125 C 105.628906 32.929688 105.933594 33.203125 106.222656 33.445312 C 106.527344 33.71875 106.828125 33.992188 107.105469 34.277344 C 106.953125 33.882812 106.746094 33.519531 106.507812 33.171875 C 106.316406 32.835938 106.054688 32.503906 105.734375 32.203125 Z M 105.734375 32.203125 " fill-opacity="1" fill-rule="nonzero"/></g></g></g><g clip-path="url(#d51deb6c5a)"><g clip-path="url(#d2aef5414b)"><g clip-path="url(#66845907d0)"><path fill="#ffffff" d="M 148.847656 50.601562 C 147.472656 47.933594 145.339844 45.699219 142.871094 44.105469 C 140.398438 42.507812 137.597656 41.507812 134.78125 40.929688 C 131.960938 40.347656 129.105469 40.160156 126.28125 40.289062 C 123.53125 40.414062 120.792969 40.753906 118.171875 41.433594 C 117.414062 40.234375 116.613281 39.09375 115.796875 37.925781 C 114.8125 36.523438 113.722656 35.136719 112.625 33.796875 C 111.523438 32.460938 110.367188 31.152344 109.171875 29.902344 C 107.976562 28.65625 106.726562 27.441406 105.417969 26.257812 C 104.097656 25.117188 102.722656 24.011719 101.324219 22.988281 C 99.878906 21.957031 98.414062 21.015625 96.847656 20.164062 C 96.0625 19.757812 95.273438 19.355469 94.445312 19.011719 C 94.046875 18.832031 93.617188 18.667969 93.164062 18.519531 C 92.941406 18.460938 92.734375 18.355469 92.515625 18.296875 L 92.164062 18.199219 C 92.03125 18.164062 91.941406 18.140625 91.78125 18.121094 C 91.402344 18.039062 90.964844 18.179688 90.695312 18.554688 L 90.667969 18.570312 C 90.089844 19.382812 89.558594 20.207031 89.058594 21.085938 C 88.585938 21.949219 88.132812 22.84375 87.765625 23.757812 C 87 25.605469 86.441406 27.484375 86.054688 29.410156 C 85.953125 29.878906 86.179688 30.34375 86.613281 30.578125 C 86.925781 30.734375 87.222656 30.933594 87.550781 31.121094 L 87.597656 32.949219 C 87.582031 32.996094 87.617188 33.050781 87.632812 33.078125 C 87.664062 33.132812 87.679688 33.164062 87.738281 33.203125 C 87.84375 33.253906 87.945312 33.234375 88.027344 33.1875 L 89.339844 32.363281 L 89.582031 33.632812 C 89.585938 33.707031 89.636719 33.789062 89.695312 33.832031 C 89.753906 33.871094 89.84375 33.894531 89.898438 33.863281 L 91.082031 33.59375 C 91.144531 33.632812 91.203125 33.675781 91.234375 33.730469 L 91.21875 34.742188 C 91.222656 34.8125 91.242188 34.914062 91.300781 34.953125 C 91.363281 34.992188 91.449219 35.019531 91.523438 35.015625 L 92.523438 34.8125 C 92.539062 34.84375 92.582031 34.855469 92.597656 34.882812 L 92.496094 35.871094 C 92.5 35.941406 92.503906 36.015625 92.578125 36.082031 C 92.636719 36.121094 92.699219 36.160156 92.785156 36.1875 L 93.96875 36.175781 C 94.03125 36.21875 94.078125 36.300781 94.136719 36.339844 L 94.039062 37.402344 C 94.027344 37.445312 94.058594 37.5 94.074219 37.527344 L 93.34375 37.613281 L 93.113281 36.890625 C 93.109375 36.816406 93.035156 36.75 92.945312 36.726562 C 92.859375 36.703125 92.785156 36.707031 92.730469 36.738281 L 91.941406 37.113281 L 91.652344 36.277344 C 91.601562 36.195312 91.570312 36.136719 91.484375 36.113281 C 91.394531 36.089844 91.324219 36.09375 91.238281 36.140625 L 90.179688 36.820312 L 89.234375 35.429688 C 89.203125 35.375 89.128906 35.304688 89.054688 35.308594 C 88.96875 35.285156 88.910156 35.316406 88.828125 35.367188 L 87.183594 36.714844 C 87.128906 36.746094 87.089844 36.804688 87.09375 36.878906 C 86.804688 36.894531 86.558594 36.921875 86.289062 36.964844 L 86.261719 36.980469 C 86.03125 37.039062 85.867188 37.207031 85.867188 37.464844 L 85.878906 38.460938 L 85.882812 38.53125 L 85.902344 38.5625 L 85.90625 38.632812 L 85.914062 38.777344 L 85.941406 39.019531 L 85.96875 39.523438 C 86.046875 40.183594 86.128906 40.84375 86.253906 41.515625 C 86.484375 42.832031 86.800781 44.097656 87.132812 45.394531 C 87.464844 46.691406 87.851562 47.953125 88.238281 49.21875 C 88.628906 50.480469 89.042969 51.730469 89.53125 52.972656 C 89.171875 51.691406 88.855469 50.425781 88.523438 49.128906 C 88.207031 47.863281 87.917969 46.578125 87.660156 45.277344 C 87.398438 43.980469 87.183594 42.691406 87.011719 41.414062 C 86.933594 40.757812 86.867188 40.125 86.832031 39.476562 L 86.820312 39 L 86.820312 38.742188 L 86.808594 38.523438 L 86.835938 37.988281 C 87.714844 37.96875 88.617188 38.050781 89.492188 38.21875 C 90.5 38.421875 91.484375 38.710938 92.46875 39.078125 C 93.457031 39.441406 94.40625 39.863281 95.339844 40.332031 C 96.277344 40.800781 97.199219 41.3125 98.039062 41.871094 C 98.265625 42.003906 98.554688 42.058594 98.824219 41.945312 C 99.277344 41.761719 99.480469 41.273438 99.339844 40.832031 L 99.324219 40.804688 C 98.800781 39.433594 98.082031 38.171875 97.238281 37.023438 C 96.394531 35.871094 95.453125 34.808594 94.417969 33.84375 C 93.410156 32.859375 92.335938 31.949219 91.191406 31.121094 C 90.617188 30.703125 90.046875 30.289062 89.464844 29.914062 C 89.101562 29.675781 88.742188 29.4375 88.371094 29.238281 C 88.746094 27.6875 89.226562 26.1875 89.8125 24.742188 C 90.183594 23.898438 90.570312 23.082031 91.003906 22.277344 C 91.304688 21.699219 91.648438 21.128906 92.035156 20.574219 C 92.167969 20.609375 92.316406 20.675781 92.445312 20.710938 C 92.8125 20.835938 93.199219 20.988281 93.582031 21.140625 C 94.351562 21.441406 95.078125 21.804688 95.820312 22.199219 C 97.292969 22.953125 98.757812 23.824219 100.125 24.789062 C 101.519531 25.738281 102.847656 26.761719 104.164062 27.828125 C 105.476562 28.894531 106.753906 30.023438 107.960938 31.226562 C 109.195312 32.414062 110.375 33.636719 111.527344 34.871094 C 112.695312 36.132812 113.808594 37.429688 114.917969 38.726562 C 117.128906 41.359375 119.203125 44.074219 121.234375 46.851562 C 120.253906 45.070312 119.1875 43.339844 118.113281 41.652344 C 119.4375 41.5625 120.722656 41.535156 122.035156 41.5625 C 123.40625 41.558594 124.8125 41.613281 126.175781 41.722656 C 128.929688 41.933594 131.636719 42.316406 134.261719 43.007812 C 136.882812 43.699219 139.378906 44.6875 141.582031 46.140625 C 142.660156 46.859375 143.675781 47.726562 144.582031 48.660156 C 145.074219 49.195312 145.535156 49.746094 145.945312 50.328125 C 145.601562 50.378906 145.242188 50.398438 144.898438 50.445312 C 143.921875 50.558594 142.976562 50.726562 142.023438 50.9375 C 140.136719 51.34375 138.277344 51.925781 136.503906 52.71875 C 135.617188 53.113281 134.777344 53.59375 133.925781 54.117188 C 133.101562 54.625 132.339844 55.242188 131.613281 55.917969 C 130.1875 57.253906 129.109375 58.945312 128.589844 60.765625 C 129.035156 59.917969 129.570312 59.167969 130.164062 58.453125 C 130.777344 57.769531 131.464844 57.15625 132.183594 56.59375 C 133.65625 55.53125 135.300781 54.703125 137.042969 54.117188 C 138.769531 53.5 140.554688 53.113281 142.359375 52.824219 C 143.273438 52.671875 144.175781 52.566406 145.097656 52.484375 C 145.554688 52.445312 146.015625 52.40625 146.449219 52.382812 C 146.878906 52.355469 147.382812 52.328125 147.804688 52.347656 C 147.964844 52.367188 148.148438 52.300781 148.289062 52.222656 C 148.925781 51.78125 149.125 51.148438 148.847656 50.601562 Z M 95.472656 37.769531 C 95.503906 37.824219 95.582031 37.894531 95.613281 37.949219 L 95.554688 38.429688 L 95.175781 38.421875 C 95.175781 38.421875 95.160156 38.394531 95.132812 38.410156 L 94.921875 37.714844 Z M 95.472656 37.769531 " fill-opacity="1" fill-rule="nonzero"/></g></g></g><g clip-path="url(#387727c4bd)"><g clip-path="url(#b6b31c3744)"><g clip-path="url(#84d07568cd)"><path fill="#ffffff" d="M 96.355469 71.351562 C 96.574219 70.558594 96.773438 69.738281 97.03125 68.957031 C 97.277344 68.152344 97.535156 67.371094 97.796875 66.589844 C 98.054688 65.8125 98.34375 65.015625 98.648438 64.25 C 98.953125 63.480469 99.285156 62.695312 99.605469 61.957031 C 99.953125 61.203125 100.316406 60.472656 100.707031 59.730469 C 101.492188 58.242188 102.367188 56.851562 103.417969 55.507812 C 102.121094 56.617188 101.054688 57.933594 100.078125 59.347656 C 99.582031 60.039062 99.148438 60.769531 98.710938 61.5 C 98.277344 62.234375 97.898438 63.003906 97.523438 63.777344 C 97.148438 64.546875 96.816406 65.332031 96.484375 66.117188 C 96.152344 66.898438 95.863281 67.695312 95.59375 68.519531 C 95.28125 69.402344 94.996094 70.269531 94.757812 71.148438 C 94.246094 69.996094 93.789062 68.808594 93.40625 67.617188 C 93.078125 66.652344 92.820312 65.683594 92.550781 64.6875 C 92.320312 63.703125 92.121094 62.703125 91.964844 61.71875 C 91.808594 60.730469 91.710938 59.710938 91.683594 58.6875 C 91.652344 57.664062 91.671875 56.652344 91.757812 55.636719 C 91.847656 54.621094 92.007812 53.601562 92.253906 52.605469 C 92.371094 52.09375 92.503906 51.609375 92.660156 51.109375 C 92.820312 50.609375 92.996094 50.136719 93.246094 49.660156 C 92.613281 50.503906 92.164062 51.46875 91.78125 52.429688 C 91.417969 53.417969 91.113281 54.445312 90.925781 55.480469 C 90.738281 56.515625 90.59375 57.5625 90.539062 58.632812 C 90.511719 59.691406 90.527344 60.757812 90.613281 61.820312 C 90.703125 62.886719 90.863281 63.945312 91.078125 64.972656 C 91.292969 66 91.554688 67.039062 91.871094 68.046875 C 92.5 70.0625 93.304688 72.054688 94.261719 73.921875 C 94.390625 74.144531 94.585938 74.292969 94.832031 74.335938 C 95.285156 74.414062 95.714844 74.128906 95.808594 73.707031 C 95.941406 72.960938 96.140625 72.140625 96.355469 71.351562 Z M 96.355469 71.351562 " fill-opacity="1" fill-rule="nonzero"/></g></g></g><g clip-path="url(#37233723e1)"><g clip-path="url(#5780475846)"><g clip-path="url(#81febe4f62)"><path fill="#ffffff" d="M 105.101562 42.664062 C 105.46875 42.527344 105.867188 42.375 106.230469 42.167969 C 105.824219 42.175781 105.410156 42.226562 105.023438 42.265625 C 104.605469 42.316406 104.21875 42.351562 103.820312 42.433594 C 103.03125 42.546875 102.246094 42.734375 101.464844 42.921875 C 101.335938 42.960938 101.238281 43.050781 101.160156 43.171875 C 100.839844 43.910156 100.5625 44.664062 100.304688 45.441406 C 100.179688 45.8125 100.070312 46.207031 99.964844 46.601562 C 99.855469 47 99.746094 47.394531 99.683594 47.800781 C 99.941406 47.46875 100.136719 47.097656 100.347656 46.753906 C 100.542969 46.382812 100.753906 46.039062 100.921875 45.683594 C 101.246094 45.015625 101.570312 44.347656 101.851562 43.667969 C 102.5625 43.484375 103.273438 43.300781 103.953125 43.058594 C 104.367188 42.9375 104.734375 42.800781 105.101562 42.664062 Z M 105.101562 42.664062 " fill-opacity="1" fill-rule="nonzero"/></g></g></g><g clip-path="url(#8918e114a4)"><g clip-path="url(#756f8520a1)"><g clip-path="url(#21bf0fde13)"><path fill="#ffffff" d="M 106.035156 44.617188 C 106.375 44.5 106.683594 44.394531 107.039062 44.230469 C 106.691406 44.207031 106.328125 44.226562 105.980469 44.203125 C 105.621094 44.222656 105.289062 44.226562 104.945312 44.273438 C 104.242188 44.34375 103.554688 44.4375 102.882812 44.5625 C 102.753906 44.597656 102.644531 44.664062 102.578125 44.8125 C 102.265625 45.433594 102.015625 46.097656 101.746094 46.734375 C 101.636719 47.058594 101.496094 47.398438 101.398438 47.75 C 101.304688 48.101562 101.191406 48.425781 101.140625 48.789062 C 101.382812 48.5 101.582031 48.203125 101.800781 47.929688 C 102 47.628906 102.199219 47.332031 102.371094 47.046875 C 102.6875 46.496094 103.003906 45.941406 103.273438 45.378906 C 103.875 45.257812 104.503906 45.121094 105.097656 44.929688 C 105.367188 44.816406 105.679688 44.710938 106.035156 44.617188 Z M 106.035156 44.617188 " fill-opacity="1" fill-rule="nonzero"/></g></g></g><g clip-path="url(#0f10f8f62c)"><g clip-path="url(#c8cacec628)"><g clip-path="url(#9554d93667)"><path fill="#ffffff" d="M 106.25 46.425781 C 106.488281 46.328125 106.714844 46.199219 106.964844 46.054688 C 106.691406 46.027344 106.429688 46.027344 106.167969 46.027344 C 105.910156 46.027344 105.664062 46.054688 105.378906 46.070312 C 104.863281 46.144531 104.347656 46.214844 103.863281 46.34375 C 103.734375 46.378906 103.621094 46.441406 103.558594 46.589844 C 103.355469 47.078125 103.179688 47.550781 103.019531 48.050781 C 102.945312 48.3125 102.859375 48.550781 102.832031 48.824219 C 102.785156 49.074219 102.730469 49.367188 102.730469 49.625 C 102.90625 49.414062 103.082031 49.203125 103.230469 49.003906 C 103.363281 48.78125 103.539062 48.570312 103.65625 48.316406 C 103.878906 47.929688 104.085938 47.515625 104.265625 47.113281 C 104.695312 47.019531 105.132812 46.878906 105.53125 46.726562 C 105.769531 46.625 106.027344 46.554688 106.25 46.425781 Z M 106.25 46.425781 " fill-opacity="1" fill-rule="nonzero"/></g></g></g><g fill="#ffffff" fill-opacity="1"><g transform="translate(6.942657, 73.69903)"><g><path d="M 11.734375 -4.59375 L 11.734375 0 L 0.34375 0 C 0.113281 0 0 -0.09375 0 -0.28125 L 0 -24.40625 C 0 -24.59375 0.113281 -24.6875 0.34375 -24.6875 L 11.734375 -24.6875 L 11.734375 -20.21875 L 4.71875 -20.21875 L 4.71875 -14.625 L 14.40625 -14.625 C 14.632812 -14.625 14.75 -14.53125 14.75 -14.34375 L 14.75 -10.4375 C 14.75 -10.25 14.632812 -10.15625 14.40625 -10.15625 L 4.71875 -10.15625 L 4.71875 -4.59375 Z M 11.734375 -4.59375 "/></g></g></g><g fill="#ffffff" fill-opacity="1"><g transform="translate(22.426478, 73.69903)"><g><path d="M 11.328125 -13.703125 C 12.617188 -13.109375 13.609375 -12.238281 14.296875 -11.09375 C 14.992188 -9.945312 15.34375 -8.644531 15.34375 -7.1875 C 15.34375 -5.644531 14.972656 -4.335938 14.234375 -3.265625 C 13.503906 -2.203125 12.554688 -1.390625 11.390625 -0.828125 C 10.234375 -0.273438 9 0 7.6875 0 C 7.6875 0 7.675781 0 7.65625 0 L 7.65625 -4.4375 C 7.675781 -4.4375 7.6875 -4.4375 7.6875 -4.4375 C 8.507812 -4.4375 9.226562 -4.6875 9.84375 -5.1875 C 10.457031 -5.695312 10.765625 -6.363281 10.765625 -7.1875 C 10.765625 -7.800781 10.601562 -8.320312 10.28125 -8.75 C 9.96875 -9.1875 9.570312 -9.53125 9.09375 -9.78125 C 8.625 -10.03125 8.15625 -10.164062 7.6875 -10.1875 C 7.582031 -10.1875 7.171875 -10.222656 6.453125 -10.296875 C 5.734375 -10.367188 4.921875 -10.609375 4.015625 -11.015625 C 2.734375 -11.609375 1.742188 -12.4375 1.046875 -13.5 C 0.347656 -14.5625 0 -15.8125 0 -17.25 C 0 -18.789062 0.363281 -20.113281 1.09375 -21.21875 C 1.820312 -22.332031 2.769531 -23.1875 3.9375 -23.78125 C 5.113281 -24.382812 6.363281 -24.6875 7.6875 -24.6875 C 9.101562 -24.6875 10.375 -24.390625 11.5 -23.796875 C 12.632812 -23.210938 13.535156 -22.390625 14.203125 -21.328125 C 14.878906 -20.273438 15.226562 -19.050781 15.25 -17.65625 C 15.269531 -17.613281 15.242188 -17.5625 15.171875 -17.5 C 15.097656 -17.4375 15.007812 -17.40625 14.90625 -17.40625 L 11.046875 -17.40625 C 10.960938 -17.40625 10.882812 -17.4375 10.8125 -17.5 C 10.738281 -17.5625 10.703125 -17.613281 10.703125 -17.65625 C 10.679688 -18.539062 10.375 -19.191406 9.78125 -19.609375 C 9.1875 -20.035156 8.488281 -20.25 7.6875 -20.25 C 6.84375 -20.25 6.113281 -19.992188 5.5 -19.484375 C 4.894531 -18.984375 4.59375 -18.238281 4.59375 -17.25 C 4.59375 -16.363281 4.910156 -15.6875 5.546875 -15.21875 C 6.191406 -14.757812 6.90625 -14.53125 7.6875 -14.53125 C 7.75 -14.53125 7.953125 -14.519531 8.296875 -14.5 C 8.648438 -14.476562 9.097656 -14.410156 9.640625 -14.296875 C 10.191406 -14.191406 10.753906 -13.992188 11.328125 -13.703125 Z M 11.328125 -13.703125 "/></g></g></g><g fill="#ffffff" fill-opacity="1"><g transform="translate(38.527173, 73.69903)"><g><path d="M 14.109375 -4.53125 L 18.828125 -4.53125 L 18.828125 -0.28125 C 18.828125 -0.09375 18.710938 0 18.484375 0 L 14.46875 0 C 13.238281 0 11.953125 -0.09375 10.609375 -0.28125 C 9.273438 -0.46875 7.976562 -0.8125 6.71875 -1.3125 C 5.46875 -1.8125 4.332031 -2.519531 3.3125 -3.4375 C 2.300781 -4.351562 1.492188 -5.535156 0.890625 -6.984375 C 0.296875 -8.441406 0 -10.226562 0 -12.34375 C 0 -14.519531 0.300781 -16.347656 0.90625 -17.828125 C 1.519531 -19.316406 2.332031 -20.515625 3.34375 -21.421875 C 4.363281 -22.328125 5.503906 -23.015625 6.765625 -23.484375 C 8.035156 -23.953125 9.332031 -24.269531 10.65625 -24.4375 C 11.988281 -24.601562 13.257812 -24.6875 14.46875 -24.6875 L 18.484375 -24.6875 C 18.710938 -24.6875 18.828125 -24.59375 18.828125 -24.40625 L 18.828125 -14.71875 L 14.109375 -14.71875 L 14.109375 -20.1875 C 12.316406 -20.289062 10.710938 -20.085938 9.296875 -19.578125 C 7.890625 -19.078125 6.78125 -18.234375 5.96875 -17.046875 C 5.15625 -15.867188 4.75 -14.300781 4.75 -12.34375 C 4.75 -10.820312 4.96875 -9.566406 5.40625 -8.578125 C 5.851562 -7.585938 6.441406 -6.816406 7.171875 -6.265625 C 7.898438 -5.710938 8.6875 -5.304688 9.53125 -5.046875 C 10.375 -4.785156 11.195312 -4.628906 12 -4.578125 C 12.800781 -4.523438 13.503906 -4.507812 14.109375 -4.53125 Z M 14.109375 -4.53125 "/></g></g></g><g fill="#ffffff" fill-opacity="1"><g transform="translate(58.298346, 73.69903)"><g><path d="M 14.203125 -12.28125 C 14.203125 -11.644531 13.976562 -11.097656 13.53125 -10.640625 C 13.09375 -10.191406 12.539062 -9.96875 11.875 -9.96875 C 11.238281 -9.96875 10.691406 -10.191406 10.234375 -10.640625 C 9.785156 -11.097656 9.5625 -11.644531 9.5625 -12.28125 C 9.5625 -12.9375 9.785156 -13.488281 10.234375 -13.9375 C 10.691406 -14.394531 11.238281 -14.625 11.875 -14.625 C 12.539062 -14.625 13.09375 -14.394531 13.53125 -13.9375 C 13.976562 -13.488281 14.203125 -12.9375 14.203125 -12.28125 Z M 23.765625 -12.375 C 23.765625 -10.832031 23.515625 -9.320312 23.015625 -7.84375 C 22.523438 -6.375 21.785156 -5.046875 20.796875 -3.859375 C 19.804688 -2.679688 18.570312 -1.742188 17.09375 -1.046875 C 15.613281 -0.347656 13.882812 0 11.90625 0 C 9.914062 0 8.171875 -0.347656 6.671875 -1.046875 C 5.179688 -1.742188 3.941406 -2.679688 2.953125 -3.859375 C 1.972656 -5.046875 1.234375 -6.375 0.734375 -7.84375 C 0.242188 -9.320312 0 -10.832031 0 -12.375 C 0 -13.914062 0.242188 -15.414062 0.734375 -16.875 C 1.234375 -18.34375 1.972656 -19.660156 2.953125 -20.828125 C 3.941406 -22.003906 5.179688 -22.941406 6.671875 -23.640625 C 8.171875 -24.335938 9.914062 -24.6875 11.90625 -24.6875 C 13.882812 -24.6875 15.613281 -24.335938 17.09375 -23.640625 C 18.570312 -22.941406 19.804688 -22.003906 20.796875 -20.828125 C 21.785156 -19.660156 22.523438 -18.34375 23.015625 -16.875 C 23.515625 -15.414062 23.765625 -13.914062 23.765625 -12.375 Z M 19.140625 -12.28125 C 19.140625 -13.289062 18.984375 -14.273438 18.671875 -15.234375 C 18.359375 -16.191406 17.90625 -17.054688 17.3125 -17.828125 C 16.71875 -18.597656 15.96875 -19.207031 15.0625 -19.65625 C 14.15625 -20.113281 13.101562 -20.34375 11.90625 -20.34375 C 10.695312 -20.34375 9.640625 -20.113281 8.734375 -19.65625 C 7.828125 -19.207031 7.070312 -18.597656 6.46875 -17.828125 C 5.863281 -17.054688 5.410156 -16.191406 5.109375 -15.234375 C 4.804688 -14.273438 4.65625 -13.289062 4.65625 -12.28125 C 4.65625 -11.289062 4.804688 -10.320312 5.109375 -9.375 C 5.410156 -8.4375 5.863281 -7.582031 6.46875 -6.8125 C 7.070312 -6.050781 7.828125 -5.445312 8.734375 -5 C 9.640625 -4.550781 10.695312 -4.328125 11.90625 -4.328125 C 13.101562 -4.328125 14.15625 -4.550781 15.0625 -5 C 15.96875 -5.445312 16.71875 -6.050781 17.3125 -6.8125 C 17.90625 -7.582031 18.359375 -8.4375 18.671875 -9.375 C 18.984375 -10.320312 19.140625 -11.289062 19.140625 -12.28125 Z M 19.140625 -12.28125 "/></g></g></g><g fill="#ffffff" fill-opacity="1"><g transform="translate(83.220505, 73.69903)"><g><path d="M 22.09375 -5.953125 L 22.09375 -13.796875 L 15.796875 -1.171875 C 15.753906 -1.046875 15.660156 -0.984375 15.515625 -0.984375 L 11.734375 -0.984375 C 11.566406 -0.984375 11.460938 -1.046875 11.421875 -1.171875 L 4.71875 -14.140625 L 4.71875 -0.28125 C 4.71875 -0.09375 4.601562 0 4.375 0 L 0.3125 0 C 0.101562 0 0 -0.09375 0 -0.28125 L 0 -24.40625 C 0 -24.59375 0.101562 -24.6875 0.3125 -24.6875 L 4.4375 -24.6875 C 4.601562 -24.6875 4.707031 -24.625 4.75 -24.5 L 13.609375 -6.421875 L 22.03125 -24.5 C 22.113281 -24.625 22.226562 -24.6875 22.375 -24.6875 L 26.453125 -24.6875 C 26.671875 -24.6875 26.78125 -24.59375 26.78125 -24.40625 L 26.78125 -5.953125 Z M 22.09375 -5.953125 "/></g></g></g><g fill="#ffffff" fill-opacity="1"><g transform="translate(111.350467, 73.69903)"><g><path d="M 14.109375 -4.53125 L 18.828125 -4.53125 L 18.828125 -0.28125 C 18.828125 -0.09375 18.710938 0 18.484375 0 L 14.46875 0 C 13.238281 0 11.953125 -0.09375 10.609375 -0.28125 C 9.273438 -0.46875 7.976562 -0.8125 6.71875 -1.3125 C 5.46875 -1.8125 4.332031 -2.519531 3.3125 -3.4375 C 2.300781 -4.351562 1.492188 -5.535156 0.890625 -6.984375 C 0.296875 -8.441406 0 -10.226562 0 -12.34375 C 0 -14.519531 0.300781 -16.347656 0.90625 -17.828125 C 1.519531 -19.316406 2.332031 -20.515625 3.34375 -21.421875 C 4.363281 -22.328125 5.503906 -23.015625 6.765625 -23.484375 C 8.035156 -23.953125 9.332031 -24.269531 10.65625 -24.4375 C 11.988281 -24.601562 13.257812 -24.6875 14.46875 -24.6875 L 18.484375 -24.6875 C 18.710938 -24.6875 18.828125 -24.59375 18.828125 -24.40625 L 18.828125 -14.71875 L 14.109375 -14.71875 L 14.109375 -20.1875 C 12.316406 -20.289062 10.710938 -20.085938 9.296875 -19.578125 C 7.890625 -19.078125 6.78125 -18.234375 5.96875 -17.046875 C 5.15625 -15.867188 4.75 -14.300781 4.75 -12.34375 C 4.75 -10.820312 4.96875 -9.566406 5.40625 -8.578125 C 5.851562 -7.585938 6.441406 -6.816406 7.171875 -6.265625 C 7.898438 -5.710938 8.6875 -5.304688 9.53125 -5.046875 C 10.375 -4.785156 11.195312 -4.628906 12 -4.578125 C 12.800781 -4.523438 13.503906 -4.507812 14.109375 -4.53125 Z M 14.109375 -4.53125 "/></g></g></g><g fill="#ffffff" fill-opacity="1"><g transform="translate(131.121639, 73.69903)"><g><path d="M 19.375 -0.375 C 19.414062 -0.289062 19.40625 -0.207031 19.34375 -0.125 C 19.28125 -0.0390625 19.203125 0 19.109375 0 L 14.84375 0 C 14.695312 0 14.601562 -0.0625 14.5625 -0.1875 L 9.6875 -13.953125 L 4.875 -0.1875 C 4.851562 -0.0625 4.75 0 4.5625 0 L 0.34375 0 C 0.195312 0 0.0976562 -0.0390625 0.046875 -0.125 C -0.00390625 -0.207031 -0.0078125 -0.289062 0.03125 -0.375 L 9.375 -24.5 C 9.414062 -24.625 9.519531 -24.6875 9.6875 -24.6875 C 9.851562 -24.6875 9.957031 -24.625 10 -24.5 Z M 19.375 -0.375 "/></g></g></g><g fill="#ffffff" fill-opacity="1"><g transform="translate(151.478848, 73.69903)"><g><path d="M 16.84375 -0.40625 C 16.882812 -0.300781 16.878906 -0.207031 16.828125 -0.125 C 16.773438 -0.0390625 16.691406 0 16.578125 0 L 12.15625 0 C 11.988281 0 11.882812 -0.0625 11.84375 -0.1875 L 7.34375 -9.96875 L 4.6875 -9.96875 L 4.6875 -0.28125 C 4.6875 -0.09375 4.570312 0 4.34375 0 L 0.3125 0 C 0.101562 0 0 -0.09375 0 -0.28125 L 0 -14.5 L 8.296875 -14.5 C 8.546875 -14.5 8.875 -14.519531 9.28125 -14.5625 C 9.695312 -14.601562 10.101562 -14.71875 10.5 -14.90625 C 10.90625 -15.09375 11.242188 -15.375 11.515625 -15.75 C 11.796875 -16.132812 11.9375 -16.664062 11.9375 -17.34375 C 11.9375 -18.019531 11.785156 -18.550781 11.484375 -18.9375 C 11.191406 -19.332031 10.828125 -19.617188 10.390625 -19.796875 C 9.960938 -19.972656 9.550781 -20.085938 9.15625 -20.140625 C 8.769531 -20.191406 8.484375 -20.21875 8.296875 -20.21875 L 0 -20.21875 L 0 -24.40625 C 0 -24.59375 0.101562 -24.6875 0.3125 -24.6875 L 8.296875 -24.6875 C 8.585938 -24.6875 9.050781 -24.660156 9.6875 -24.609375 C 10.320312 -24.554688 11.035156 -24.414062 11.828125 -24.1875 C 12.617188 -23.96875 13.378906 -23.597656 14.109375 -23.078125 C 14.847656 -22.566406 15.453125 -21.847656 15.921875 -20.921875 C 16.398438 -19.992188 16.640625 -18.800781 16.640625 -17.34375 C 16.640625 -16.082031 16.429688 -15.015625 16.015625 -14.140625 C 15.609375 -13.273438 15.054688 -12.5625 14.359375 -12 C 13.671875 -11.445312 12.914062 -11.015625 12.09375 -10.703125 C 12.875 -8.953125 13.671875 -7.222656 14.484375 -5.515625 C 15.296875 -3.816406 16.082031 -2.113281 16.84375 -0.40625 Z M 16.84375 -0.40625 "/></g></g></g><g fill="#ffffff" fill-opacity="1"><g transform="translate(169.214289, 73.69903)"><g><path d="M 11.734375 -4.59375 L 11.734375 0 L 0.34375 0 C 0.113281 0 0 -0.09375 0 -0.28125 L 0 -24.40625 C 0 -24.59375 0.113281 -24.6875 0.34375 -24.6875 L 11.734375 -24.6875 L 11.734375 -20.21875 L 4.71875 -20.21875 L 4.71875 -14.625 L 14.40625 -14.625 C 14.632812 -14.625 14.75 -14.53125 14.75 -14.34375 L 14.75 -10.4375 C 14.75 -10.25 14.632812 -10.15625 14.40625 -10.15625 L 4.71875 -10.15625 L 4.71875 -4.59375 Z M 11.734375 -4.59375 "/></g></g></g><g fill="#ffffff" fill-opacity="1"><g transform="translate(184.69811, 73.69903)"><g><path d="M 11.734375 -4.59375 L 11.734375 0 L 0.34375 0 C 0.113281 0 0 -0.09375 0 -0.28125 L 0 -24.40625 C 0 -24.59375 0.113281 -24.6875 0.34375 -24.6875 L 11.734375 -24.6875 L 11.734375 -20.21875 L 4.71875 -20.21875 L 4.71875 -14.625 L 14.40625 -14.625 C 14.632812 -14.625 14.75 -14.53125 14.75 -14.34375 L 14.75 -10.4375 C 14.75 -10.25 14.632812 -10.15625 14.40625 -10.15625 L 4.71875 -10.15625 L 4.71875 -4.59375 Z M 11.734375 -4.59375 "/></g></g></g><g fill="#ffffff" fill-opacity="1"><g transform="translate(200.181942, 73.69903)"><g><path d="M 16.84375 -0.40625 C 16.882812 -0.300781 16.878906 -0.207031 16.828125 -0.125 C 16.773438 -0.0390625 16.691406 0 16.578125 0 L 12.15625 0 C 11.988281 0 11.882812 -0.0625 11.84375 -0.1875 L 7.34375 -9.96875 L 4.6875 -9.96875 L 4.6875 -0.28125 C 4.6875 -0.09375 4.570312 0 4.34375 0 L 0.3125 0 C 0.101562 0 0 -0.09375 0 -0.28125 L 0 -14.5 L 8.296875 -14.5 C 8.546875 -14.5 8.875 -14.519531 9.28125 -14.5625 C 9.695312 -14.601562 10.101562 -14.71875 10.5 -14.90625 C 10.90625 -15.09375 11.242188 -15.375 11.515625 -15.75 C 11.796875 -16.132812 11.9375 -16.664062 11.9375 -17.34375 C 11.9375 -18.019531 11.785156 -18.550781 11.484375 -18.9375 C 11.191406 -19.332031 10.828125 -19.617188 10.390625 -19.796875 C 9.960938 -19.972656 9.550781 -20.085938 9.15625 -20.140625 C 8.769531 -20.191406 8.484375 -20.21875 8.296875 -20.21875 L 0 -20.21875 L 0 -24.40625 C 0 -24.59375 0.101562 -24.6875 0.3125 -24.6875 L 8.296875 -24.6875 C 8.585938 -24.6875 9.050781 -24.660156 9.6875 -24.609375 C 10.320312 -24.554688 11.035156 -24.414062 11.828125 -24.1875 C 12.617188 -23.96875 13.378906 -23.597656 14.109375 -23.078125 C 14.847656 -22.566406 15.453125 -21.847656 15.921875 -20.921875 C 16.398438 -19.992188 16.640625 -18.800781 16.640625 -17.34375 C 16.640625 -16.082031 16.429688 -15.015625 16.015625 -14.140625 C 15.609375 -13.273438 15.054688 -12.5625 14.359375 -12 C 13.671875 -11.445312 12.914062 -11.015625 12.09375 -10.703125 C 12.875 -8.953125 13.671875 -7.222656 14.484375 -5.515625 C 15.296875 -3.816406 16.082031 -2.113281 16.84375 -0.40625 Z M 16.84375 -0.40625 "/></g></g></g></svg>